<?xml version="1.0" encoding="UTF-8" standalone="no"?>
<svg
   width="400px"
   height="400px"
   viewBox="0 0 131.26271 131.26271"
   version="1.1"
   id="svg1"
   xmlns="http://www.w3.org/2000/svg"
   xmlns:svg="http://www.w3.org/2000/svg">
  <defs
     id="defs1" />
  <g
     id="layer1"
     transform="translate(-29.366271,-42.079703)">
    <path
       style="fill:#ffffff;fill-opacity:0;stroke-width:0.750001"
       id="path1"
       d="M 96.898063,105.37369 8.0095774,81.556089 73.080465,16.485201 Z" />
    <path
       style="fill:#000000;fill-opacity:1;stroke-width:0.750001"
       id="path2"
       d="m 128.09647,165.03994 -17.13993,-10.31544 -7.31838,18.61791 -11.887685,-16.08939 -13.886073,14.40009 -4.825642,-19.41387 -18.339733,7.98997 2.971057,-19.78277 -20.001335,0.36346 10.315439,-17.13993 -18.617916,-7.31838 16.08939,-11.88768 -14.400088,-13.886075 19.413877,-4.825642 -7.989976,-18.339733 19.782776,2.971057 -0.363464,-20.001336 17.139929,10.31544 7.318383,-18.617917 11.887681,16.089391 13.88607,-14.400088 4.82564,19.413876 18.33974,-7.989976 -2.97106,19.782777 20.00134,-0.363464 -10.31544,17.139928 18.61791,7.318383 -16.08939,11.887679 14.40009,13.88607 -19.41388,4.82565 7.98998,18.33973 -19.78278,-2.97106 z" />
  </g>
</svg>
